<?xml version="1.0" encoding="utf-8"?>
<svg version="1.1" xmlns="http://www.w3.org/2000/svg" xmlns:xlink="http://www.w3.org/1999/xlink" x="0px" y="0px" viewBox="42 42 416 416" xml:space="preserve">
<style type="text/css">
	.st0{fill:url(#SVGID_1_);}
	.st1{fill:url(#SVGID_2_);}
	.st2{fill:url(#SVGID_3_);}
	.st3{fill:url(#SVGID_4_);}
	.st4{fill:url(#SVGID_5_);}
	.st5{fill:url(#SVGID_6_);}
	.st6{fill:url(#SVGID_7_);}
	.st7{fill:url(#SVGID_8_);}
	.st8{fill:url(#SVGID_9_);}
	.st9{fill:url(#SVGID_10_);}
	.st10{fill:url(#SVGID_11_);}
	.st11{fill:url(#SVGID_12_);}
	.st12{fill:url(#SVGID_13_);}
	.st13{fill:url(#SVGID_14_);}
	.st14{fill:url(#SVGID_15_);}
	.st15{fill:url(#SVGID_16_);}
	.st16{fill:url(#SVGID_17_);}
	.st17{fill:url(#SVGID_18_);}
	.st18{fill:url(#SVGID_19_);}
	.st19{fill:url(#SVGID_20_);}
	.st20{fill:url(#SVGID_21_);}
	.st21{fill:url(#SVGID_22_);}
	.st22{fill:url(#SVGID_23_);}
	.st23{fill:url(#SVGID_24_);}
	.st24{fill:url(#SVGID_25_);}
	.st25{fill:url(#SVGID_26_);}
</style>
<g>
	<g>
		<g>
			
				<linearGradient id="SVGID_1_" gradientUnits="userSpaceOnUse" x1="-20003.1738" y1="-6922.1504" x2="-19904.1465" y2="-6922.1504" gradientTransform="matrix(0.0693 0.0186 -0.0186 0.0693 1454.2463 1193.329)">
				<stop  offset="0" style="stop-color:#601986"/>
				<stop  offset="0.0519" style="stop-color:#6C1885;stop-opacity:0.9896"/>
				<stop  offset="0.3031" style="stop-color:#9C147F;stop-opacity:0.9394"/>
				<stop  offset="0.5325" style="stop-color:#BE137A;stop-opacity:0.8935"/>
				<stop  offset="0.7323" style="stop-color:#D51476;stop-opacity:0.8535"/>
				<stop  offset="0.8949" style="stop-color:#E21574;stop-opacity:0.821"/>
				<stop  offset="1" style="stop-color:#E61673;stop-opacity:0.8"/>
			</linearGradient>
			<path class="st0" d="M202.93,333.78c0,0-9.11,2.99-8.27,17.36c0,0,2.16-8.04,5.75-9.24
				C206.73,339.81,202.93,333.78,202.93,333.78z"/>
		</g>
		<g>
			
				<linearGradient id="SVGID_2_" gradientUnits="userSpaceOnUse" x1="-15314.7881" y1="-10882.627" x2="-15215.7617" y2="-10882.627" gradientTransform="matrix(0.0798 0 0 0.0798 1413.8381 1208.1917)">
				<stop  offset="0" style="stop-color:#601986"/>
				<stop  offset="0.0519" style="stop-color:#6C1885;stop-opacity:0.9896"/>
				<stop  offset="0.3031" style="stop-color:#9C147F;stop-opacity:0.9394"/>
				<stop  offset="0.5325" style="stop-color:#BE137A;stop-opacity:0.8935"/>
				<stop  offset="0.7323" style="stop-color:#D51476;stop-opacity:0.8535"/>
				<stop  offset="0.8949" style="stop-color:#E21574;stop-opacity:0.821"/>
				<stop  offset="1" style="stop-color:#E61673;stop-opacity:0.8"/>
			</linearGradient>
			<path class="st1" d="M197.66,329.62c0,0-8.91,5.83-3.89,21.01c0,0,0-9.25,3.52-11.57C203.46,334.99,197.66,329.62,197.66,329.62z
				"/>
		</g>
		<g>
			
				<linearGradient id="SVGID_3_" gradientUnits="userSpaceOnUse" x1="-10316.4766" y1="-13233.502" x2="-10217.4512" y2="-13233.502" gradientTransform="matrix(0.0856 -0.0229 0.0229 0.0856 1374.744 1235.7635)">
				<stop  offset="0" style="stop-color:#601986"/>
				<stop  offset="0.0519" style="stop-color:#6C1885;stop-opacity:0.9896"/>
				<stop  offset="0.3031" style="stop-color:#9C147F;stop-opacity:0.9394"/>
				<stop  offset="0.5325" style="stop-color:#BE137A;stop-opacity:0.8935"/>
				<stop  offset="0.7323" style="stop-color:#D51476;stop-opacity:0.8535"/>
				<stop  offset="0.8949" style="stop-color:#E21574;stop-opacity:0.821"/>
				<stop  offset="1" style="stop-color:#E61673;stop-opacity:0.8"/>
			</linearGradient>
			<path class="st2" d="M190.79,326.67c0,0-7.89,8.82,1.87,23.66c0,0-2.66-9.93,0.45-13.43
				C198.57,330.77,190.79,326.67,190.79,326.67z"/>
		</g>
		<g>
			
				<linearGradient id="SVGID_4_" gradientUnits="userSpaceOnUse" x1="-5423.6729" y1="-14112.9043" x2="-5324.6465" y2="-14112.9043" gradientTransform="matrix(0.0853 -0.0492 0.0492 0.0853 1340.7153 1276.5975)">
				<stop  offset="0" style="stop-color:#601986"/>
				<stop  offset="0.0519" style="stop-color:#6C1885;stop-opacity:0.9896"/>
				<stop  offset="0.3031" style="stop-color:#9C147F;stop-opacity:0.9394"/>
				<stop  offset="0.5325" style="stop-color:#BE137A;stop-opacity:0.8935"/>
				<stop  offset="0.7323" style="stop-color:#D51476;stop-opacity:0.8535"/>
				<stop  offset="0.8949" style="stop-color:#E21574;stop-opacity:0.821"/>
				<stop  offset="1" style="stop-color:#E61673;stop-opacity:0.8"/>
			</linearGradient>
			<path class="st3" d="M182.58,325.47c0,0-5.93,11.74,8.81,24.86c0,0-5.71-9.89-3.38-14.54
				C192.11,327.63,182.58,325.47,182.58,325.47z"/>
		</g>
		<g>
			
				<linearGradient id="SVGID_5_" gradientUnits="userSpaceOnUse" x1="-965.3502" y1="-13737.6807" x2="-866.324" y2="-13737.6807" gradientTransform="matrix(0.0774 -0.0774 0.0774 0.0774 1315.9369 1330.2087)">
				<stop  offset="0" style="stop-color:#601986"/>
				<stop  offset="0.0519" style="stop-color:#6C1885;stop-opacity:0.9896"/>
				<stop  offset="0.3031" style="stop-color:#9C147F;stop-opacity:0.9394"/>
				<stop  offset="0.5325" style="stop-color:#BE137A;stop-opacity:0.8935"/>
				<stop  offset="0.7323" style="stop-color:#D51476;stop-opacity:0.8535"/>
				<stop  offset="0.8949" style="stop-color:#E21574;stop-opacity:0.821"/>
				<stop  offset="1" style="stop-color:#E61673;stop-opacity:0.8"/>
			</linearGradient>
			<path class="st4" d="M173.42,326.55c0,0-2.99,14.3,16.6,24.14c0,0-8.98-8.98-7.81-14.63
				C184.27,326.13,173.42,326.55,173.42,326.55z"/>
		</g>
		<g>
			
				<linearGradient id="SVGID_6_" gradientUnits="userSpaceOnUse" x1="2823.0144" y1="-12372.9785" x2="2922.0408" y2="-12372.9785" gradientTransform="matrix(0.0608 -0.1053 0.1053 0.0608 1304.7607 1394.8726)">
				<stop  offset="0" style="stop-color:#601986"/>
				<stop  offset="0.0519" style="stop-color:#6C1885;stop-opacity:0.9896"/>
				<stop  offset="0.3031" style="stop-color:#9C147F;stop-opacity:0.9394"/>
				<stop  offset="0.5325" style="stop-color:#BE137A;stop-opacity:0.8935"/>
				<stop  offset="0.7323" style="stop-color:#D51476;stop-opacity:0.8535"/>
				<stop  offset="0.8949" style="stop-color:#E21574;stop-opacity:0.821"/>
				<stop  offset="1" style="stop-color:#E61673;stop-opacity:0.8"/>
			</linearGradient>
			<path class="st5" d="M163.91,330.35c0,0,0.9,16.21,24.76,21.14c0,0-12.21-7.05-12.59-13.46
				C175.42,326.77,163.91,330.35,163.91,330.35z"/>
		</g>
		<g>
			
				<linearGradient id="SVGID_7_" gradientUnits="userSpaceOnUse" x1="5798.4761" y1="-10304.1465" x2="5897.502" y2="-10304.1465" gradientTransform="matrix(0.035 -0.1305 0.1305 0.035 1311.3617 1467.4871)">
				<stop  offset="0" style="stop-color:#601986"/>
				<stop  offset="0.0519" style="stop-color:#6C1885;stop-opacity:0.9896"/>
				<stop  offset="0.3031" style="stop-color:#9C147F;stop-opacity:0.9394"/>
				<stop  offset="0.5325" style="stop-color:#BE137A;stop-opacity:0.8935"/>
				<stop  offset="0.7323" style="stop-color:#D51476;stop-opacity:0.8535"/>
				<stop  offset="0.8949" style="stop-color:#E21574;stop-opacity:0.821"/>
				<stop  offset="1" style="stop-color:#E61673;stop-opacity:0.8"/>
			</linearGradient>
			<path class="st6" d="M154.78,337.15c0,0,5.63,17.14,32.66,15.56c0,0-15.14-4.06-17.38-10.82
				C166.12,330.01,154.78,337.15,154.78,337.15z"/>
		</g>
		<g>
			
				<linearGradient id="SVGID_8_" gradientUnits="userSpaceOnUse" x1="7903.2358" y1="-7812.5459" x2="8002.2617" y2="-7812.5459" gradientTransform="matrix(0 -0.1501 0.1501 0 1339.3285 1543.5225)">
				<stop  offset="0" style="stop-color:#601986"/>
				<stop  offset="0.0519" style="stop-color:#6C1885;stop-opacity:0.9896"/>
				<stop  offset="0.3031" style="stop-color:#9C147F;stop-opacity:0.9394"/>
				<stop  offset="0.5325" style="stop-color:#BE137A;stop-opacity:0.8935"/>
				<stop  offset="0.7323" style="stop-color:#D51476;stop-opacity:0.8535"/>
				<stop  offset="0.8949" style="stop-color:#E21574;stop-opacity:0.821"/>
				<stop  offset="1" style="stop-color:#E61673;stop-opacity:0.8"/>
			</linearGradient>
			<path class="st7" d="M146.94,347.08c0,0,10.97,16.77,39.52,7.31c0,0-17.41,0-21.76-6.62
				C157.06,336.15,146.94,347.08,146.94,347.08z"/>
		</g>
		<g>
			
				<linearGradient id="SVGID_9_" gradientUnits="userSpaceOnUse" x1="9152.5869" y1="-5156.2388" x2="9251.6133" y2="-5156.2388" gradientTransform="matrix(-0.0432 -0.1611 0.1611 -0.0432 1391.2098 1617.0848)">
				<stop  offset="0" style="stop-color:#601986"/>
				<stop  offset="0.0519" style="stop-color:#6C1885;stop-opacity:0.9896"/>
				<stop  offset="0.3031" style="stop-color:#9C147F;stop-opacity:0.9394"/>
				<stop  offset="0.5325" style="stop-color:#BE137A;stop-opacity:0.8935"/>
				<stop  offset="0.7323" style="stop-color:#D51476;stop-opacity:0.8535"/>
				<stop  offset="0.8949" style="stop-color:#E21574;stop-opacity:0.821"/>
				<stop  offset="1" style="stop-color:#E61673;stop-opacity:0.8"/>
			</linearGradient>
			<path class="st8" d="M141.39,359.99c0,0,16.6,14.85,44.52-3.52c0,0-18.69,5.01-25.26-0.84
				C149.1,345.36,141.39,359.99,141.39,359.99z"/>
		</g>
		<g>
			
				<linearGradient id="SVGID_10_" gradientUnits="userSpaceOnUse" x1="9619.9365" y1="-2556.002" x2="9718.9629" y2="-2556.002" gradientTransform="matrix(-0.0927 -0.1605 0.1605 -0.0927 1468.0464 1681.1158)">
				<stop  offset="0" style="stop-color:#601986"/>
				<stop  offset="0.0519" style="stop-color:#6C1885;stop-opacity:0.9896"/>
				<stop  offset="0.3031" style="stop-color:#9C147F;stop-opacity:0.9394"/>
				<stop  offset="0.5325" style="stop-color:#BE137A;stop-opacity:0.8935"/>
				<stop  offset="0.7323" style="stop-color:#D51476;stop-opacity:0.8535"/>
				<stop  offset="0.8949" style="stop-color:#E21574;stop-opacity:0.821"/>
				<stop  offset="1" style="stop-color:#E61673;stop-opacity:0.8"/>
			</linearGradient>
			<path class="st9" d="M139.14,375.45c0,0,22.08,11.16,46.77-16.58c0,0-18.62,10.75-27.35,6.36
				C143.21,357.52,139.14,375.45,139.14,375.45z"/>
		</g>
		<g>
			
				<linearGradient id="SVGID_11_" gradientUnits="userSpaceOnUse" x1="9420.5283" y1="-186.6665" x2="9519.5547" y2="-186.6665" gradientTransform="matrix(-0.1456 -0.1456 0.1456 -0.1456 1568.9252 1727.7408)">
				<stop  offset="0" style="stop-color:#601986"/>
				<stop  offset="0.0519" style="stop-color:#6C1885;stop-opacity:0.9896"/>
				<stop  offset="0.3031" style="stop-color:#9C147F;stop-opacity:0.9394"/>
				<stop  offset="0.5325" style="stop-color:#BE137A;stop-opacity:0.8935"/>
				<stop  offset="0.7323" style="stop-color:#D51476;stop-opacity:0.8535"/>
				<stop  offset="0.8949" style="stop-color:#E21574;stop-opacity:0.821"/>
				<stop  offset="1" style="stop-color:#E61673;stop-opacity:0.8"/>
			</linearGradient>
			<path class="st10" d="M141.17,392.68c0,0,26.91,5.63,45.43-31.24c0,0-16.89,16.89-27.53,14.69
				C140.38,372.27,141.17,392.68,141.17,392.68z"/>
		</g>
		<g>
			
				<linearGradient id="SVGID_12_" gradientUnits="userSpaceOnUse" x1="8695.2695" y1="1826.6259" x2="8794.2959" y2="1826.6259" gradientTransform="matrix(-0.1981 -0.1144 0.1144 -0.1981 1690.6016 1748.7708)">
				<stop  offset="0" style="stop-color:#601986"/>
				<stop  offset="0.0519" style="stop-color:#6C1885;stop-opacity:0.9896"/>
				<stop  offset="0.3031" style="stop-color:#9C147F;stop-opacity:0.9394"/>
				<stop  offset="0.5325" style="stop-color:#BE137A;stop-opacity:0.8935"/>
				<stop  offset="0.7323" style="stop-color:#D51476;stop-opacity:0.8535"/>
				<stop  offset="0.8949" style="stop-color:#E21574;stop-opacity:0.821"/>
				<stop  offset="1" style="stop-color:#E61673;stop-opacity:0.8"/>
			</linearGradient>
			<path class="st11" d="M148.31,410.59c0,0,30.5-1.7,39.77-46.6c0,0-13.27,22.98-25.32,23.69
				C141.59,388.92,148.31,410.59,148.31,410.59z"/>
		</g>
		<g>
			
				<linearGradient id="SVGID_13_" gradientUnits="userSpaceOnUse" x1="7595.8071" y1="3407.908" x2="7694.833" y2="3407.908" gradientTransform="matrix(-0.2455 -0.0658 0.0658 -0.2455 1827.2386 1736.3499)">
				<stop  offset="0" style="stop-color:#601986"/>
				<stop  offset="0.0519" style="stop-color:#6C1885;stop-opacity:0.9896"/>
				<stop  offset="0.3031" style="stop-color:#9C147F;stop-opacity:0.9394"/>
				<stop  offset="0.5325" style="stop-color:#BE137A;stop-opacity:0.8935"/>
				<stop  offset="0.7323" style="stop-color:#D51476;stop-opacity:0.8535"/>
				<stop  offset="0.8949" style="stop-color:#E21574;stop-opacity:0.821"/>
				<stop  offset="1" style="stop-color:#E61673;stop-opacity:0.8"/>
			</linearGradient>
			<path class="st12" d="M161.12,427.76c0,0,32.24-10.59,29.29-61.45c0,0-7.63,28.48-20.36,32.7
				C147.67,406.43,161.12,427.76,161.12,427.76z"/>
		</g>
		<g>
			
				<linearGradient id="SVGID_14_" gradientUnits="userSpaceOnUse" x1="6271.6685" y1="4526.4634" x2="6370.6948" y2="4526.4634" gradientTransform="matrix(-0.2824 0 0 -0.2824 1970.3126 1683.7255)">
				<stop  offset="0" style="stop-color:#601986"/>
				<stop  offset="0.0519" style="stop-color:#6C1885;stop-opacity:0.9896"/>
				<stop  offset="0.3031" style="stop-color:#9C147F;stop-opacity:0.9394"/>
				<stop  offset="0.5325" style="stop-color:#BE137A;stop-opacity:0.8935"/>
				<stop  offset="0.7323" style="stop-color:#D51476;stop-opacity:0.8535"/>
				<stop  offset="0.8949" style="stop-color:#E21574;stop-opacity:0.821"/>
				<stop  offset="1" style="stop-color:#E61673;stop-opacity:0.8"/>
			</linearGradient>
			<path class="st13" d="M179.81,442.5c0,0,31.56-20.64,13.76-74.37c0,0,0,32.76-12.45,40.95
				C159.24,423.48,179.81,442.5,179.81,442.5z"/>
		</g>
		<g>
			
				<linearGradient id="SVGID_15_" gradientUnits="userSpaceOnUse" x1="4859.998" y1="5190.4199" x2="4959.0239" y2="5190.4199" gradientTransform="matrix(-0.3031 0.0812 -0.0812 -0.3031 2108.7332 1586.1014)">
				<stop  offset="0" style="stop-color:#601986"/>
				<stop  offset="0.0519" style="stop-color:#6C1885;stop-opacity:0.9896"/>
				<stop  offset="0.3031" style="stop-color:#9C147F;stop-opacity:0.9394"/>
				<stop  offset="0.5325" style="stop-color:#BE137A;stop-opacity:0.8935"/>
				<stop  offset="0.7323" style="stop-color:#D51476;stop-opacity:0.8535"/>
				<stop  offset="0.8949" style="stop-color:#E21574;stop-opacity:0.821"/>
				<stop  offset="1" style="stop-color:#E61673;stop-opacity:0.8"/>
			</linearGradient>
			<path class="st14" d="M204.1,452.96c0,0,27.94-31.23-6.62-83.78c0,0,9.42,35.16-1.58,47.53
				C176.55,438.45,204.1,452.96,204.1,452.96z"/>
		</g>
		<g>
			
				<linearGradient id="SVGID_16_" gradientUnits="userSpaceOnUse" x1="3478.1255" y1="5438.7891" x2="3577.1516" y2="5438.7891" gradientTransform="matrix(-0.302 0.1743 -0.1743 -0.302 2229.219 1441.5199)">
				<stop  offset="0" style="stop-color:#601986"/>
				<stop  offset="0.0519" style="stop-color:#6C1885;stop-opacity:0.9896"/>
				<stop  offset="0.3031" style="stop-color:#9C147F;stop-opacity:0.9394"/>
				<stop  offset="0.5325" style="stop-color:#BE137A;stop-opacity:0.8935"/>
				<stop  offset="0.7323" style="stop-color:#D51476;stop-opacity:0.8535"/>
				<stop  offset="0.8949" style="stop-color:#E21574;stop-opacity:0.821"/>
				<stop  offset="1" style="stop-color:#E61673;stop-opacity:0.8"/>
			</linearGradient>
			<path class="st15" d="M233.18,457.19c0,0,21-41.55-31.2-88.01c0,0,20.22,35.03,11.97,51.47
				C199.44,449.54,233.18,457.19,233.18,457.19z"/>
		</g>
		<g>
			
				<linearGradient id="SVGID_17_" gradientUnits="userSpaceOnUse" x1="2218.9636" y1="5332.8149" x2="2317.9897" y2="5332.8149" gradientTransform="matrix(-0.2739 0.2739 -0.2739 -0.2739 2316.9519 1251.6989)">
				<stop  offset="0" style="stop-color:#601986"/>
				<stop  offset="0.0519" style="stop-color:#6C1885;stop-opacity:0.9896"/>
				<stop  offset="0.3031" style="stop-color:#9C147F;stop-opacity:0.9394"/>
				<stop  offset="0.5325" style="stop-color:#BE137A;stop-opacity:0.8935"/>
				<stop  offset="0.7323" style="stop-color:#D51476;stop-opacity:0.8535"/>
				<stop  offset="0.8949" style="stop-color:#E21574;stop-opacity:0.821"/>
				<stop  offset="1" style="stop-color:#E61673;stop-opacity:0.8"/>
			</linearGradient>
			<path class="st16" d="M265.6,453.36c0,0,10.59-50.63-58.79-85.49c0,0,31.78,31.78,27.65,51.8
				C227.2,454.86,265.6,453.36,265.6,453.36z"/>
		</g>
		<g>
			
				<linearGradient id="SVGID_18_" gradientUnits="userSpaceOnUse" x1="1149.0175" y1="4947.3828" x2="1248.0437" y2="4947.3828" gradientTransform="matrix(-0.2152 0.3728 -0.3728 -0.2152 2356.5234 1022.7431)">
				<stop  offset="0" style="stop-color:#601986"/>
				<stop  offset="0.0519" style="stop-color:#6C1885;stop-opacity:0.9896"/>
				<stop  offset="0.3031" style="stop-color:#9C147F;stop-opacity:0.9394"/>
				<stop  offset="0.5325" style="stop-color:#BE137A;stop-opacity:0.8935"/>
				<stop  offset="0.7323" style="stop-color:#D51476;stop-opacity:0.8535"/>
				<stop  offset="0.8949" style="stop-color:#E21574;stop-opacity:0.821"/>
				<stop  offset="1" style="stop-color:#E61673;stop-opacity:0.8"/>
			</linearGradient>
			<path class="st17" d="M299.3,439.93c0,0-3.19-57.39-87.68-74.84c0,0,43.25,24.97,44.57,47.64
				C258.52,452.58,299.3,439.93,299.3,439.93z"/>
		</g>
		<g>
			
				<linearGradient id="SVGID_19_" gradientUnits="userSpaceOnUse" x1="308.6592" y1="4363.0835" x2="407.6855" y2="4363.0835" gradientTransform="matrix(-0.1238 0.462 -0.462 -0.1238 2333.1514 765.6364)">
				<stop  offset="0" style="stop-color:#601986"/>
				<stop  offset="0.0519" style="stop-color:#6C1885;stop-opacity:0.9896"/>
				<stop  offset="0.3031" style="stop-color:#9C147F;stop-opacity:0.9394"/>
				<stop  offset="0.5325" style="stop-color:#BE137A;stop-opacity:0.8935"/>
				<stop  offset="0.7323" style="stop-color:#D51476;stop-opacity:0.8535"/>
				<stop  offset="0.8949" style="stop-color:#E21574;stop-opacity:0.821"/>
				<stop  offset="1" style="stop-color:#E61673;stop-opacity:0.8"/>
			</linearGradient>
			<path class="st18" d="M331.61,415.83c0,0-19.93-60.67-115.63-55.11c0,0,53.59,14.36,61.54,38.32
				C291.48,441.14,331.61,415.83,331.61,415.83z"/>
		</g>
		<g>
			
				<linearGradient id="SVGID_20_" gradientUnits="userSpaceOnUse" x1="-285.7871" y1="3659.3821" x2="-186.7609" y2="3659.3821" gradientTransform="matrix(0 0.5314 -0.5314 0 2234.1292 496.4175)">
				<stop  offset="0" style="stop-color:#601986"/>
				<stop  offset="0.0519" style="stop-color:#6C1885;stop-opacity:0.9896"/>
				<stop  offset="0.3031" style="stop-color:#9C147F;stop-opacity:0.9394"/>
				<stop  offset="0.5325" style="stop-color:#BE137A;stop-opacity:0.8935"/>
				<stop  offset="0.7323" style="stop-color:#D51476;stop-opacity:0.8535"/>
				<stop  offset="0.8949" style="stop-color:#E21574;stop-opacity:0.821"/>
				<stop  offset="1" style="stop-color:#E61673;stop-opacity:0.8"/>
			</linearGradient>
			<path class="st19" d="M359.36,380.67c0,0-38.84-59.39-139.95-25.89c0,0,61.65,0,77.06,23.43
				C323.56,419.37,359.36,380.67,359.36,380.67z"/>
		</g>
		<g>
			
				<linearGradient id="SVGID_21_" gradientUnits="userSpaceOnUse" x1="-638.6408" y1="2909.1624" x2="-539.6146" y2="2909.1624" gradientTransform="matrix(0.1528 0.5704 -0.5704 0.1528 2050.4326 235.9547)">
				<stop  offset="0" style="stop-color:#601986"/>
				<stop  offset="0.0519" style="stop-color:#6C1885;stop-opacity:0.9896"/>
				<stop  offset="0.3031" style="stop-color:#9C147F;stop-opacity:0.9394"/>
				<stop  offset="0.5325" style="stop-color:#BE137A;stop-opacity:0.8935"/>
				<stop  offset="0.7323" style="stop-color:#D51476;stop-opacity:0.8535"/>
				<stop  offset="0.8949" style="stop-color:#E21574;stop-opacity:0.821"/>
				<stop  offset="1" style="stop-color:#E61673;stop-opacity:0.8"/>
			</linearGradient>
			<path class="st20" d="M379.02,334.96c0,0-58.76-52.57-157.64,12.46c0,0,66.17-17.73,89.44,2.98
				C351.73,386.79,379.02,334.96,379.02,334.96z"/>
		</g>
		<g>
			
				<linearGradient id="SVGID_22_" gradientUnits="userSpaceOnUse" x1="-770.6342" y1="2174.7786" x2="-671.608" y2="2174.7786" gradientTransform="matrix(0.328 0.5682 -0.5682 0.328 1778.377 9.2396)">
				<stop  offset="0" style="stop-color:#601986"/>
				<stop  offset="0.0519" style="stop-color:#6C1885;stop-opacity:0.9896"/>
				<stop  offset="0.3031" style="stop-color:#9C147F;stop-opacity:0.9394"/>
				<stop  offset="0.5325" style="stop-color:#BE137A;stop-opacity:0.8935"/>
				<stop  offset="0.7323" style="stop-color:#D51476;stop-opacity:0.8535"/>
				<stop  offset="0.8949" style="stop-color:#E21574;stop-opacity:0.821"/>
				<stop  offset="1" style="stop-color:#E61673;stop-opacity:0.8"/>
			</linearGradient>
			<path class="st21" d="M386.98,280.24c0,0-78.18-39.52-165.61,58.7c0,0,65.91-38.06,96.85-22.52
				C372.59,343.72,386.98,280.24,386.98,280.24z"/>
		</g>
		<g>
			
				<linearGradient id="SVGID_23_" gradientUnits="userSpaceOnUse" x1="-714.3153" y1="1505.6084" x2="-615.2891" y2="1505.6084" gradientTransform="matrix(0.5155 0.5155 -0.5155 0.5155 1421.1949 -155.8457)">
				<stop  offset="0" style="stop-color:#601986"/>
				<stop  offset="0.0519" style="stop-color:#6C1885;stop-opacity:0.9896"/>
				<stop  offset="0.3031" style="stop-color:#9C147F;stop-opacity:0.9394"/>
				<stop  offset="0.5325" style="stop-color:#BE137A;stop-opacity:0.8935"/>
				<stop  offset="0.7323" style="stop-color:#D51476;stop-opacity:0.8535"/>
				<stop  offset="0.8949" style="stop-color:#E21574;stop-opacity:0.821"/>
				<stop  offset="1" style="stop-color:#E61673;stop-opacity:0.8"/>
			</linearGradient>
			<path class="st22" d="M379.79,219.23c0,0-95.28-19.93-160.86,110.63c0,0,59.8-59.8,97.47-52.02
				C382.6,291.49,379.79,219.23,379.79,219.23z"/>
		</g>
		<g>
			
				<linearGradient id="SVGID_24_" gradientUnits="userSpaceOnUse" x1="-509.4808" y1="936.9951" x2="-410.4546" y2="936.9951" gradientTransform="matrix(0.7015 0.405 -0.405 0.7015 990.3744 -230.3065)">
				<stop  offset="0" style="stop-color:#601986"/>
				<stop  offset="0.0519" style="stop-color:#6C1885;stop-opacity:0.9896"/>
				<stop  offset="0.3031" style="stop-color:#9C147F;stop-opacity:0.9394"/>
				<stop  offset="0.5325" style="stop-color:#BE137A;stop-opacity:0.8935"/>
				<stop  offset="0.7323" style="stop-color:#D51476;stop-opacity:0.8535"/>
				<stop  offset="0.8949" style="stop-color:#E21574;stop-opacity:0.821"/>
				<stop  offset="1" style="stop-color:#E61673;stop-opacity:0.8"/>
			</linearGradient>
			<path class="st23" d="M354.52,155.81c0,0-107.99,6.01-140.83,164.99c0,0,46.98-81.38,89.65-83.87
				C378.32,232.56,354.52,155.81,354.52,155.81z"/>
		</g>
		<g>
			
				<linearGradient id="SVGID_25_" gradientUnits="userSpaceOnUse" x1="-198.9602" y1="490.3943" x2="-99.9339" y2="490.3943" gradientTransform="matrix(0.8693 0.2329 -0.2329 0.8693 506.5826 -186.3276)">
				<stop  offset="0" style="stop-color:#601986"/>
				<stop  offset="0.0519" style="stop-color:#6C1885;stop-opacity:0.9896"/>
				<stop  offset="0.3031" style="stop-color:#9C147F;stop-opacity:0.9394"/>
				<stop  offset="0.5325" style="stop-color:#BE137A;stop-opacity:0.8935"/>
				<stop  offset="0.7323" style="stop-color:#D51476;stop-opacity:0.8535"/>
				<stop  offset="0.8949" style="stop-color:#E21574;stop-opacity:0.821"/>
				<stop  offset="1" style="stop-color:#E61673;stop-opacity:0.8"/>
			</linearGradient>
			<path class="st24" d="M309.17,95.02c0,0-114.17,37.5-103.7,217.58c0,0,27.02-100.85,72.1-115.79
				C356.78,170.54,309.17,95.02,309.17,95.02z"/>
		</g>
		<g>
			<linearGradient id="SVGID_26_" gradientUnits="userSpaceOnUse" x1="175.0156" y1="174.4812" x2="274.0419" y2="174.4812">
				<stop  offset="0" style="stop-color:#601986"/>
				<stop  offset="0.0519" style="stop-color:#6C1885;stop-opacity:0.9896"/>
				<stop  offset="0.3031" style="stop-color:#9C147F;stop-opacity:0.9394"/>
				<stop  offset="0.5325" style="stop-color:#BE137A;stop-opacity:0.8935"/>
				<stop  offset="0.7323" style="stop-color:#D51476;stop-opacity:0.8535"/>
				<stop  offset="0.8949" style="stop-color:#E21574;stop-opacity:0.821"/>
				<stop  offset="1" style="stop-color:#E61673;stop-opacity:0.8"/>
			</linearGradient>
			<path class="st25" d="M243.01,42.81c0,0-111.75,73.08-48.72,263.33c0,0,0-116.01,44.08-145.01
				C315.83,110.18,243.01,42.81,243.01,42.81z"/>
		</g>
	</g>
</g>
</svg>
